<mxfile host="app.diagrams.net" modified="2024-03-03T05:31:00.606Z" agent="Mozilla/5.0 (Windows NT 10.0; Win64; x64) AppleWebKit/537.36 (KHTML, like Gecko) Chrome/121.0.0.0 Safari/537.36" etag="dTpk8nRqgqItRMEDIGnd" version="24.0.0" type="device">
  <diagram id="EMnFjtMopK0SoW1ce9yu" name="Class Diagram">
    <mxGraphModel dx="2883" dy="497" grid="1" gridSize="10" guides="1" tooltips="1" connect="1" arrows="1" fold="1" page="1" pageScale="1" pageWidth="827" pageHeight="1169" math="0" shadow="0">
      <root>
        <mxCell id="0" />
        <mxCell id="1" parent="0" />
        <mxCell id="168" value="&amp;nbsp; class CarStock" style="shape=umlFrame;whiteSpace=wrap;html=1;movable=0;resizable=0;rotatable=0;deletable=0;editable=0;connectable=0;width=174;height=30;align=left;locked=1;" parent="1" vertex="1">
          <mxGeometry x="-1654" width="826" height="1169" as="geometry" />
        </mxCell>
        <mxCell id="2" value="&lt;i&gt;CarBase&lt;/i&gt;" style="swimlane;fontStyle=1;align=center;verticalAlign=middle;childLayout=stackLayout;horizontal=1;startSize=29;horizontalStack=0;resizeParent=1;resizeParentMax=0;resizeLast=0;collapsible=0;marginBottom=0;html=1;fillColor=#dae8fc;strokeColor=#6c8ebf;movable=0;resizable=0;rotatable=0;deletable=0;editable=0;locked=1;connectable=0;" parent="1" vertex="1">
          <mxGeometry x="-1276" y="393" width="237" height="104" as="geometry" />
        </mxCell>
        <mxCell id="4" value="+ Brand:&lt;span style=&quot;white-space: pre;&quot;&gt;&#x9;&lt;span style=&quot;white-space: pre;&quot;&gt;&#x9;&lt;/span&gt;&lt;span style=&quot;white-space: pre;&quot;&gt;&#x9;&lt;/span&gt;C&lt;/span&gt;arBrands {readOnly}" style="text;html=1;strokeColor=none;fillColor=none;align=left;verticalAlign=middle;spacingLeft=4;spacingRight=4;overflow=hidden;rotatable=0;points=[[0,0.5],[1,0.5]];portConstraint=eastwest;movable=0;resizable=0;deletable=0;editable=0;locked=1;connectable=0;" parent="2" vertex="1">
          <mxGeometry y="29" width="237" height="25" as="geometry" />
        </mxCell>
        <mxCell id="6" value="+ MaxSpeedKmh:&lt;span style=&quot;white-space: pre;&quot;&gt;&#x9;&lt;/span&gt;ushort {readOnly}" style="text;html=1;strokeColor=none;fillColor=none;align=left;verticalAlign=middle;spacingLeft=4;spacingRight=4;overflow=hidden;rotatable=0;points=[[0,0.5],[1,0.5]];portConstraint=eastwest;movable=0;resizable=0;deletable=0;editable=0;locked=1;connectable=0;" parent="2" vertex="1">
          <mxGeometry y="54" width="237" height="25" as="geometry" />
        </mxCell>
        <mxCell id="5" value="+ Year:&lt;span style=&quot;white-space: pre;&quot;&gt;&#x9;&lt;/span&gt;&lt;span style=&quot;white-space: pre;&quot;&gt;&#x9;&lt;/span&gt;&lt;span style=&quot;white-space: pre;&quot;&gt;&#x9;&lt;/span&gt;ushort {readOnly}" style="text;html=1;strokeColor=none;fillColor=none;align=left;verticalAlign=middle;spacingLeft=4;spacingRight=4;overflow=hidden;rotatable=0;points=[[0,0.5],[1,0.5]];portConstraint=eastwest;movable=0;resizable=0;deletable=0;editable=0;locked=1;connectable=0;" parent="2" vertex="1">
          <mxGeometry y="79" width="237" height="25" as="geometry" />
        </mxCell>
        <mxCell id="19" value="&amp;lt;&amp;lt;enumeration&amp;gt;&amp;gt;&lt;br&gt;&lt;b&gt;CarBrands&lt;/b&gt;" style="swimlane;fontStyle=0;align=center;verticalAlign=top;childLayout=stackLayout;horizontal=1;startSize=40;horizontalStack=0;resizeParent=1;resizeParentMax=0;resizeLast=0;collapsible=0;marginBottom=0;html=1;fillColor=#ffe6cc;strokeColor=#d79b00;movable=0;resizable=0;rotatable=0;deletable=0;editable=0;locked=1;connectable=0;" parent="1" vertex="1">
          <mxGeometry x="-975" y="409.5" width="140" height="100" as="geometry" />
        </mxCell>
        <mxCell id="20" value="Ford" style="text;html=1;strokeColor=none;fillColor=none;align=left;verticalAlign=middle;spacingLeft=4;spacingRight=4;overflow=hidden;rotatable=0;points=[[0,0.5],[1,0.5]];portConstraint=eastwest;movable=0;resizable=0;deletable=0;editable=0;locked=1;connectable=0;" parent="19" vertex="1">
          <mxGeometry y="40" width="140" height="30" as="geometry" />
        </mxCell>
        <mxCell id="21" value="VW" style="text;html=1;strokeColor=none;fillColor=none;align=left;verticalAlign=middle;spacingLeft=4;spacingRight=4;overflow=hidden;rotatable=0;points=[[0,0.5],[1,0.5]];portConstraint=eastwest;movable=0;resizable=0;deletable=0;editable=0;locked=1;connectable=0;" parent="19" vertex="1">
          <mxGeometry y="70" width="140" height="30" as="geometry" />
        </mxCell>
        <mxCell id="22" style="edgeStyle=none;html=1;exitX=1;exitY=0.5;exitDx=0;exitDy=0;endArrow=open;endFill=0;dashed=1;entryX=0;entryY=0.5;entryDx=0;entryDy=0;movable=0;resizable=0;rotatable=0;deletable=0;editable=0;locked=1;connectable=0;" parent="1" source="6" target="19" edge="1">
          <mxGeometry relative="1" as="geometry">
            <mxPoint x="-996" y="403" as="targetPoint" />
          </mxGeometry>
        </mxCell>
        <mxCell id="23" value="&amp;lt;&amp;lt;use&amp;gt;&amp;gt;" style="edgeLabel;html=1;align=center;verticalAlign=middle;resizable=0;points=[];rotation=0;movable=0;rotatable=0;deletable=0;editable=0;locked=1;connectable=0;" parent="22" vertex="1" connectable="0">
          <mxGeometry x="0.2641" y="3" relative="1" as="geometry">
            <mxPoint x="-12" y="-8" as="offset" />
          </mxGeometry>
        </mxCell>
        <mxCell id="29" style="edgeStyle=none;html=1;exitX=0.5;exitY=0;exitDx=0;exitDy=0;fontColor=#808080;endArrow=block;endFill=0;entryX=0.391;entryY=1.107;entryDx=0;entryDy=0;entryPerimeter=0;movable=0;resizable=0;rotatable=0;deletable=0;editable=0;locked=1;connectable=0;" parent="1" source="24" target="5" edge="1">
          <mxGeometry relative="1" as="geometry">
            <mxPoint x="-1186" y="523" as="targetPoint" />
          </mxGeometry>
        </mxCell>
        <mxCell id="24" value="FordCar" style="swimlane;fontStyle=1;align=center;verticalAlign=middle;childLayout=stackLayout;horizontal=1;startSize=29;horizontalStack=0;resizeParent=1;resizeParentMax=0;resizeLast=0;collapsible=0;marginBottom=0;html=1;fillColor=#dae8fc;strokeColor=#6c8ebf;movable=0;resizable=0;rotatable=0;deletable=0;editable=0;locked=1;connectable=0;" parent="1" vertex="1">
          <mxGeometry x="-1416" y="573" width="217" height="79" as="geometry" />
        </mxCell>
        <mxCell id="25" value="^+ Brand:&lt;span style=&quot;white-space: pre;&quot;&gt;&#x9;&lt;/span&gt;&lt;span style=&quot;white-space: pre;&quot;&gt;&#x9;&lt;/span&gt;&lt;span style=&quot;white-space: pre;&quot;&gt;&#x9;&lt;/span&gt;CarBrands&amp;nbsp; = Ford" style="text;html=1;strokeColor=none;fillColor=none;align=left;verticalAlign=middle;spacingLeft=4;spacingRight=4;overflow=hidden;rotatable=0;points=[[0,0.5],[1,0.5]];portConstraint=eastwest;fontColor=#808080;movable=0;resizable=0;deletable=0;editable=0;locked=1;connectable=0;" parent="24" vertex="1">
          <mxGeometry y="29" width="217" height="25" as="geometry" />
        </mxCell>
        <mxCell id="27" value="^+ MaxSpeedKmh:&lt;span style=&quot;white-space: pre;&quot;&gt;&#x9;&lt;/span&gt;ushort = 250" style="text;html=1;strokeColor=none;fillColor=none;align=left;verticalAlign=middle;spacingLeft=4;spacingRight=4;overflow=hidden;rotatable=0;points=[[0,0.5],[1,0.5]];portConstraint=eastwest;fontColor=#808080;movable=0;resizable=0;deletable=0;editable=0;locked=1;connectable=0;" parent="24" vertex="1">
          <mxGeometry y="54" width="217" height="25" as="geometry" />
        </mxCell>
        <mxCell id="33" style="edgeStyle=none;html=1;exitX=0.5;exitY=0;exitDx=0;exitDy=0;entryX=0.564;entryY=1.08;entryDx=0;entryDy=0;entryPerimeter=0;fontColor=#808080;endArrow=block;endFill=0;movable=0;resizable=0;rotatable=0;deletable=0;editable=0;locked=1;connectable=0;" parent="1" source="30" target="5" edge="1">
          <mxGeometry relative="1" as="geometry" />
        </mxCell>
        <mxCell id="30" value="VWCar" style="swimlane;fontStyle=1;align=center;verticalAlign=middle;childLayout=stackLayout;horizontal=1;startSize=29;horizontalStack=0;resizeParent=1;resizeParentMax=0;resizeLast=0;collapsible=0;marginBottom=0;html=1;fillColor=#dae8fc;strokeColor=#6c8ebf;movable=0;resizable=0;rotatable=0;deletable=0;editable=0;locked=1;connectable=0;" parent="1" vertex="1">
          <mxGeometry x="-1113" y="573" width="217" height="79" as="geometry" />
        </mxCell>
        <mxCell id="31" value="^+ Brand:&lt;span style=&quot;white-space: pre;&quot;&gt;&#x9;&lt;/span&gt;&lt;span style=&quot;white-space: pre;&quot;&gt;&#x9;&lt;span style=&quot;white-space: pre;&quot;&gt;&#x9;&lt;/span&gt;C&lt;/span&gt;arBrands&amp;nbsp; = VW" style="text;html=1;strokeColor=none;fillColor=none;align=left;verticalAlign=middle;spacingLeft=4;spacingRight=4;overflow=hidden;rotatable=0;points=[[0,0.5],[1,0.5]];portConstraint=eastwest;fontColor=#808080;movable=0;resizable=0;deletable=0;editable=0;locked=1;connectable=0;" parent="30" vertex="1">
          <mxGeometry y="29" width="217" height="25" as="geometry" />
        </mxCell>
        <mxCell id="32" value="^+ MaxSpeedKmh:&lt;span style=&quot;white-space: pre;&quot;&gt;&#x9;&lt;/span&gt;ushort = 180" style="text;html=1;strokeColor=none;fillColor=none;align=left;verticalAlign=middle;spacingLeft=4;spacingRight=4;overflow=hidden;rotatable=0;points=[[0,0.5],[1,0.5]];portConstraint=eastwest;fontColor=#808080;movable=0;resizable=0;deletable=0;editable=0;locked=1;connectable=0;" parent="30" vertex="1">
          <mxGeometry y="54" width="217" height="25" as="geometry" />
        </mxCell>
        <mxCell id="88" style="edgeStyle=none;html=1;exitX=0.25;exitY=0;exitDx=0;exitDy=0;entryX=0.689;entryY=1.13;entryDx=0;entryDy=0;entryPerimeter=0;dashed=1;fontColor=#000000;startArrow=none;startFill=0;endArrow=open;endFill=0;movable=0;resizable=0;rotatable=0;deletable=0;editable=0;locked=1;connectable=0;" parent="1" source="56" target="27" edge="1">
          <mxGeometry relative="1" as="geometry" />
        </mxCell>
        <mxCell id="89" value="&amp;lt;&amp;lt;instantiates&amp;gt;&amp;gt;" style="edgeLabel;html=1;align=center;verticalAlign=middle;resizable=0;points=[];fontColor=#000000;rotation=-90;movable=0;rotatable=0;deletable=0;editable=0;locked=1;connectable=0;" parent="88" vertex="1" connectable="0">
          <mxGeometry x="0.3279" y="2" relative="1" as="geometry">
            <mxPoint x="-10" y="23" as="offset" />
          </mxGeometry>
        </mxCell>
        <mxCell id="90" style="edgeStyle=none;html=1;exitX=1.018;exitY=0.19;exitDx=0;exitDy=0;entryX=0.487;entryY=1.117;entryDx=0;entryDy=0;entryPerimeter=0;dashed=1;fontColor=#000000;startArrow=none;startFill=0;endArrow=open;endFill=0;rounded=0;exitPerimeter=0;movable=0;resizable=0;rotatable=0;deletable=0;editable=0;locked=1;connectable=0;" parent="1" source="56" target="32" edge="1">
          <mxGeometry relative="1" as="geometry">
            <Array as="points">
              <mxPoint x="-1007" y="784" />
            </Array>
          </mxGeometry>
        </mxCell>
        <mxCell id="91" value="&amp;lt;&amp;lt;instantiates&amp;gt;&amp;gt;" style="edgeLabel;html=1;align=center;verticalAlign=middle;resizable=0;points=[];fontColor=#000000;rotation=-90;movable=0;rotatable=0;deletable=0;editable=0;locked=1;connectable=0;" parent="90" vertex="1" connectable="0">
          <mxGeometry x="0.0983" y="-1" relative="1" as="geometry">
            <mxPoint x="-14" y="-63" as="offset" />
          </mxGeometry>
        </mxCell>
        <mxCell id="56" value="CarFactory" style="swimlane;fontStyle=1;align=center;verticalAlign=middle;childLayout=stackLayout;horizontal=1;startSize=29;horizontalStack=0;resizeParent=1;resizeParentMax=0;resizeLast=0;collapsible=0;marginBottom=0;html=1;fillColor=#dae8fc;strokeColor=#6c8ebf;movable=0;resizable=0;rotatable=0;deletable=0;editable=0;locked=1;connectable=0;" parent="1" vertex="1">
          <mxGeometry x="-1308" y="769" width="167" height="79" as="geometry" />
        </mxCell>
        <mxCell id="57" value="+ CreateFord():&lt;span style=&quot;white-space: pre;&quot;&gt;&#x9;&lt;/span&gt;FordCar" style="text;html=1;strokeColor=none;fillColor=none;align=left;verticalAlign=middle;spacingLeft=4;spacingRight=4;overflow=hidden;rotatable=0;points=[[0,0.5],[1,0.5]];portConstraint=eastwest;movable=0;resizable=0;deletable=0;editable=0;locked=1;connectable=0;" parent="56" vertex="1">
          <mxGeometry y="29" width="167" height="25" as="geometry" />
        </mxCell>
        <mxCell id="62" value="+ CreateVW():&lt;span style=&quot;white-space-collapse: preserve;&quot;&gt; &lt;span style=&quot;white-space: pre;&quot;&gt;&#x9;&lt;/span&gt;&lt;/span&gt;VWCar" style="text;html=1;strokeColor=none;fillColor=none;align=left;verticalAlign=middle;spacingLeft=4;spacingRight=4;overflow=hidden;rotatable=0;points=[[0,0.5],[1,0.5]];portConstraint=eastwest;movable=0;resizable=0;deletable=0;editable=0;locked=1;connectable=0;" parent="56" vertex="1">
          <mxGeometry y="54" width="167" height="25" as="geometry" />
        </mxCell>
        <mxCell id="63" value="Tyre" style="swimlane;fontStyle=1;align=center;verticalAlign=middle;childLayout=stackLayout;horizontal=1;startSize=29;horizontalStack=0;resizeParent=1;resizeParentMax=0;resizeLast=0;collapsible=0;marginBottom=0;html=1;fillColor=#dae8fc;strokeColor=#6c8ebf;movable=0;resizable=0;rotatable=0;deletable=0;editable=0;locked=1;connectable=0;" parent="1" vertex="1">
          <mxGeometry x="-1640" y="393" width="237" height="104" as="geometry" />
        </mxCell>
        <mxCell id="66" value="+ Brand:&lt;span style=&quot;white-space: pre;&quot;&gt;&#x9;&lt;span style=&quot;white-space: pre;&quot;&gt;&#x9;&lt;span style=&quot;white-space: pre;&quot;&gt;&#x9;&lt;/span&gt;&lt;/span&gt;&lt;/span&gt;TyreBrands {readOnly}" style="text;html=1;strokeColor=none;fillColor=none;align=left;verticalAlign=middle;spacingLeft=4;spacingRight=4;overflow=hidden;rotatable=0;points=[[0,0.5],[1,0.5]];portConstraint=eastwest;movable=0;resizable=0;deletable=0;editable=0;locked=1;connectable=0;" parent="63" vertex="1">
          <mxGeometry y="29" width="237" height="25" as="geometry" />
        </mxCell>
        <mxCell id="101" value="+ SizeInch:&lt;span style=&quot;white-space: pre;&quot;&gt;&#x9;&lt;span style=&quot;white-space: pre;&quot;&gt;&#x9;&lt;/span&gt;&lt;/span&gt;ushort&amp;nbsp;{readOnly}" style="text;html=1;strokeColor=none;fillColor=none;align=left;verticalAlign=middle;spacingLeft=4;spacingRight=4;overflow=hidden;rotatable=0;points=[[0,0.5],[1,0.5]];portConstraint=eastwest;movable=0;resizable=0;deletable=0;editable=0;locked=1;connectable=0;" parent="63" vertex="1">
          <mxGeometry y="54" width="237" height="25" as="geometry" />
        </mxCell>
        <mxCell id="105" value="+ PressurePsi:&lt;span style=&quot;white-space: pre;&quot;&gt;&#x9;&lt;/span&gt;ushort" style="text;html=1;strokeColor=none;fillColor=none;align=left;verticalAlign=middle;spacingLeft=4;spacingRight=4;overflow=hidden;rotatable=0;points=[[0,0.5],[1,0.5]];portConstraint=eastwest;movable=0;resizable=0;deletable=0;editable=0;locked=1;connectable=0;" parent="63" vertex="1">
          <mxGeometry y="79" width="237" height="25" as="geometry" />
        </mxCell>
        <mxCell id="67" style="edgeStyle=none;html=1;fontColor=#000000;endArrow=none;endFill=0;startArrow=diamondThin;startFill=1;movable=0;resizable=0;rotatable=0;deletable=0;editable=0;locked=1;connectable=0;" parent="1" edge="1">
          <mxGeometry relative="1" as="geometry">
            <mxPoint x="-1402" y="401" as="targetPoint" />
            <mxPoint x="-1277" y="401" as="sourcePoint" />
          </mxGeometry>
        </mxCell>
        <mxCell id="106" value="&lt;font style=&quot;font-size: 11px;&quot;&gt;FrontLeftTyre&lt;/font&gt;" style="edgeLabel;html=1;align=center;verticalAlign=middle;resizable=0;points=[];fontSize=15;labelBackgroundColor=none;movable=0;rotatable=0;deletable=0;editable=0;locked=1;connectable=0;" parent="67" vertex="1" connectable="0">
          <mxGeometry x="-0.3026" y="7" relative="1" as="geometry">
            <mxPoint x="-1" y="-1" as="offset" />
          </mxGeometry>
        </mxCell>
        <mxCell id="109" value="1" style="edgeLabel;html=1;align=center;verticalAlign=middle;resizable=0;points=[];fontSize=11;movable=0;rotatable=0;deletable=0;editable=0;locked=1;connectable=0;" parent="67" vertex="1" connectable="0">
          <mxGeometry x="0.445" y="-1" relative="1" as="geometry">
            <mxPoint x="-21" y="-8" as="offset" />
          </mxGeometry>
        </mxCell>
        <mxCell id="110" value="1" style="edgeLabel;html=1;align=center;verticalAlign=middle;resizable=0;points=[];fontSize=11;movable=0;rotatable=0;deletable=0;editable=0;locked=1;connectable=0;" parent="67" vertex="1" connectable="0">
          <mxGeometry x="-0.2627" y="-2" relative="1" as="geometry">
            <mxPoint x="25" y="-8" as="offset" />
          </mxGeometry>
        </mxCell>
        <mxCell id="77" style="edgeStyle=none;html=1;exitX=0.404;exitY=1.032;exitDx=0;exitDy=0;entryX=0.5;entryY=0;entryDx=0;entryDy=0;fontColor=#000000;endArrow=open;endFill=0;exitPerimeter=0;movable=0;resizable=0;rotatable=0;deletable=0;editable=0;locked=1;connectable=0;" parent="1" source="76" edge="1">
          <mxGeometry relative="1" as="geometry">
            <mxPoint x="-1159.6" y="327.21000000000004" as="sourcePoint" />
            <mxPoint x="-1158.5000000000002" y="393" as="targetPoint" />
          </mxGeometry>
        </mxCell>
        <mxCell id="FJ4Vf0NNgzew3g04LYd6-173" value="1" style="edgeLabel;html=1;align=center;verticalAlign=middle;resizable=0;points=[];movable=0;rotatable=0;deletable=0;editable=0;locked=1;connectable=0;" vertex="1" connectable="0" parent="77">
          <mxGeometry x="-0.2197" y="-1" relative="1" as="geometry">
            <mxPoint x="-7" y="-16" as="offset" />
          </mxGeometry>
        </mxCell>
        <mxCell id="FJ4Vf0NNgzew3g04LYd6-174" value="*" style="edgeLabel;html=1;align=center;verticalAlign=middle;resizable=0;points=[];movable=0;rotatable=0;deletable=0;editable=0;locked=1;connectable=0;" vertex="1" connectable="0" parent="77">
          <mxGeometry x="0.2014" y="1" relative="1" as="geometry">
            <mxPoint x="-9" y="13" as="offset" />
          </mxGeometry>
        </mxCell>
        <mxCell id="143" style="edgeStyle=none;html=1;exitX=0.5;exitY=0;exitDx=0;exitDy=0;entryX=0.489;entryY=1.04;entryDx=0;entryDy=0;entryPerimeter=0;dashed=1;endArrow=block;endFill=0;movable=0;resizable=0;rotatable=0;deletable=0;editable=0;locked=1;connectable=0;" parent="1" source="74" target="139" edge="1">
          <mxGeometry relative="1" as="geometry" />
        </mxCell>
        <mxCell id="74" value="CarRepository" style="swimlane;fontStyle=1;align=center;verticalAlign=middle;childLayout=stackLayout;horizontal=1;startSize=29;horizontalStack=0;resizeParent=1;resizeParentMax=0;resizeLast=0;collapsible=0;marginBottom=0;html=1;fillColor=#dae8fc;strokeColor=#6c8ebf;movable=0;resizable=0;rotatable=0;deletable=0;editable=0;locked=1;connectable=0;" parent="1" vertex="1">
          <mxGeometry x="-1263" y="249" width="258" height="79" as="geometry" />
        </mxCell>
        <mxCell id="75" value="+ InsertMany(car: CarBase[*]):&lt;span style=&quot;white-space: pre;&quot;&gt;&#x9;&lt;/span&gt;void" style="text;html=1;strokeColor=none;fillColor=none;align=left;verticalAlign=middle;spacingLeft=4;spacingRight=4;overflow=hidden;rotatable=0;points=[[0,0.5],[1,0.5]];portConstraint=eastwest;movable=0;resizable=0;deletable=0;editable=0;locked=1;connectable=0;" parent="74" vertex="1">
          <mxGeometry y="29" width="258" height="25" as="geometry" />
        </mxCell>
        <mxCell id="76" value="+ GetAll():&lt;span style=&quot;white-space: pre;&quot;&gt;&#x9;&lt;/span&gt;&lt;span style=&quot;white-space: pre;&quot;&gt;&#x9;&lt;span style=&quot;white-space: pre;&quot;&gt;&#x9;&lt;/span&gt;&lt;span style=&quot;white-space: pre;&quot;&gt;&#x9;&lt;span style=&quot;white-space: pre;&quot;&gt;&#x9;&lt;/span&gt;&lt;/span&gt;&lt;/span&gt;CarBase[*]" style="text;html=1;strokeColor=none;fillColor=none;align=left;verticalAlign=middle;spacingLeft=4;spacingRight=4;overflow=hidden;rotatable=0;points=[[0,0.5],[1,0.5]];portConstraint=eastwest;movable=0;resizable=0;deletable=0;editable=0;locked=1;connectable=0;" parent="74" vertex="1">
          <mxGeometry y="54" width="258" height="25" as="geometry" />
        </mxCell>
        <mxCell id="80" value="CarStockService" style="swimlane;fontStyle=1;align=center;verticalAlign=middle;childLayout=stackLayout;horizontal=1;startSize=29;horizontalStack=0;resizeParent=1;resizeParentMax=0;resizeLast=0;collapsible=0;marginBottom=0;html=1;fillColor=#dae8fc;strokeColor=#6c8ebf;movable=0;resizable=0;rotatable=0;deletable=0;editable=0;locked=1;connectable=0;" parent="1" vertex="1">
          <mxGeometry x="-1564" y="250" width="254" height="79" as="geometry" />
        </mxCell>
        <mxCell id="81" value="+ BookInMany(cars: CarBase[*]):&lt;span style=&quot;white-space: pre;&quot;&gt;&#x9;&lt;/span&gt;void" style="text;html=1;strokeColor=none;fillColor=none;align=left;verticalAlign=middle;spacingLeft=4;spacingRight=4;overflow=hidden;rotatable=0;points=[[0,0.5],[1,0.5]];portConstraint=eastwest;movable=0;resizable=0;deletable=0;editable=0;locked=1;connectable=0;" parent="80" vertex="1">
          <mxGeometry y="29" width="254" height="25" as="geometry" />
        </mxCell>
        <mxCell id="82" value="+ GetStockOrderedByYearDesc():&lt;span style=&quot;white-space: pre;&quot;&gt;&#x9;&lt;/span&gt;&lt;span style=&quot;white-space-collapse: preserve;&quot;&gt;CarBase[*]&lt;/span&gt;" style="text;html=1;strokeColor=none;fillColor=none;align=left;verticalAlign=middle;spacingLeft=4;spacingRight=4;overflow=hidden;rotatable=0;points=[[0,0.5],[1,0.5]];portConstraint=eastwest;movable=0;resizable=0;deletable=0;editable=0;locked=1;connectable=0;" parent="80" vertex="1">
          <mxGeometry y="54" width="254" height="25" as="geometry" />
        </mxCell>
        <mxCell id="95" style="edgeStyle=none;html=1;exitX=0;exitY=0.5;exitDx=0;exitDy=0;dashed=1;fontColor=#000000;startArrow=none;startFill=0;endArrow=open;endFill=0;rounded=0;entryX=0.822;entryY=1.151;entryDx=0;entryDy=0;entryPerimeter=0;movable=0;resizable=0;rotatable=0;deletable=0;editable=0;locked=1;connectable=0;" parent="1" source="57" target="105" edge="1">
          <mxGeometry relative="1" as="geometry">
            <Array as="points">
              <mxPoint x="-1445" y="811" />
            </Array>
            <mxPoint x="-1449" y="519" as="targetPoint" />
          </mxGeometry>
        </mxCell>
        <mxCell id="96" value="&amp;lt;&amp;lt;instantiates&amp;gt;&amp;gt;" style="edgeLabel;html=1;align=center;verticalAlign=middle;resizable=0;points=[];fontColor=#000000;rotation=-90;movable=0;rotatable=0;deletable=0;editable=0;locked=1;connectable=0;" parent="95" vertex="1" connectable="0">
          <mxGeometry x="0.4452" y="2" relative="1" as="geometry">
            <mxPoint x="-10" y="-6" as="offset" />
          </mxGeometry>
        </mxCell>
        <mxCell id="98" value="&lt;font style=&quot;font-size: 12px;&quot;&gt;For the sake of consistency, I have decided to go with English naming only.&lt;/font&gt;" style="text;html=1;align=center;verticalAlign=middle;resizable=0;points=[];autosize=1;strokeColor=none;fillColor=none;fontColor=#000000;fontStyle=1;fontSize=15;labelBorderColor=default;labelBackgroundColor=#FFCC99;movable=0;rotatable=0;deletable=0;editable=0;locked=1;connectable=0;" parent="1" vertex="1">
          <mxGeometry x="-1290" y="10" width="450" height="30" as="geometry" />
        </mxCell>
        <mxCell id="102" value="&amp;lt;&amp;lt;enumeration&amp;gt;&amp;gt;&lt;br&gt;&lt;b&gt;TyreBrands&lt;/b&gt;" style="swimlane;fontStyle=0;align=center;verticalAlign=top;childLayout=stackLayout;horizontal=1;startSize=40;horizontalStack=0;resizeParent=1;resizeParentMax=0;resizeLast=0;collapsible=0;marginBottom=0;html=1;fillColor=#ffe6cc;strokeColor=#d79b00;movable=0;resizable=0;rotatable=0;deletable=0;editable=0;locked=1;connectable=0;" parent="1" vertex="1">
          <mxGeometry x="-1641" y="581" width="140" height="100" as="geometry" />
        </mxCell>
        <mxCell id="103" value="Pirelli" style="text;html=1;strokeColor=none;fillColor=none;align=left;verticalAlign=middle;spacingLeft=4;spacingRight=4;overflow=hidden;rotatable=0;points=[[0,0.5],[1,0.5]];portConstraint=eastwest;movable=0;resizable=0;deletable=0;editable=0;locked=1;connectable=0;" parent="102" vertex="1">
          <mxGeometry y="40" width="140" height="30" as="geometry" />
        </mxCell>
        <mxCell id="104" value="Michelin" style="text;html=1;strokeColor=none;fillColor=none;align=left;verticalAlign=middle;spacingLeft=4;spacingRight=4;overflow=hidden;rotatable=0;points=[[0,0.5],[1,0.5]];portConstraint=eastwest;movable=0;resizable=0;deletable=0;editable=0;locked=1;connectable=0;" parent="102" vertex="1">
          <mxGeometry y="70" width="140" height="30" as="geometry" />
        </mxCell>
        <mxCell id="111" style="edgeStyle=none;html=1;fontColor=#000000;endArrow=none;endFill=0;startArrow=diamondThin;startFill=1;exitX=0;exitY=0.5;exitDx=0;exitDy=0;movable=0;resizable=0;rotatable=0;deletable=0;editable=0;locked=1;connectable=0;" parent="1" edge="1">
          <mxGeometry relative="1" as="geometry">
            <mxPoint x="-1402" y="432" as="targetPoint" />
            <mxPoint x="-1275.9999999999998" y="431.5" as="sourcePoint" />
          </mxGeometry>
        </mxCell>
        <mxCell id="112" value="&lt;font style=&quot;font-size: 11px;&quot;&gt;FrontRightTyre&lt;/font&gt;" style="edgeLabel;html=1;align=center;verticalAlign=middle;resizable=0;points=[];fontSize=15;labelBackgroundColor=none;movable=0;rotatable=0;deletable=0;editable=0;locked=1;connectable=0;" parent="111" vertex="1" connectable="0">
          <mxGeometry x="-0.3026" y="7" relative="1" as="geometry">
            <mxPoint x="2" y="-1" as="offset" />
          </mxGeometry>
        </mxCell>
        <mxCell id="113" value="1" style="edgeLabel;html=1;align=center;verticalAlign=middle;resizable=0;points=[];fontSize=11;movable=0;rotatable=0;deletable=0;editable=0;locked=1;connectable=0;" parent="111" vertex="1" connectable="0">
          <mxGeometry x="0.445" y="-1" relative="1" as="geometry">
            <mxPoint x="-21" y="-8" as="offset" />
          </mxGeometry>
        </mxCell>
        <mxCell id="114" value="1" style="edgeLabel;html=1;align=center;verticalAlign=middle;resizable=0;points=[];fontSize=11;movable=0;rotatable=0;deletable=0;editable=0;locked=1;connectable=0;" parent="111" vertex="1" connectable="0">
          <mxGeometry x="-0.2627" y="-2" relative="1" as="geometry">
            <mxPoint x="25" y="-8" as="offset" />
          </mxGeometry>
        </mxCell>
        <mxCell id="115" style="edgeStyle=none;html=1;fontColor=#000000;endArrow=none;endFill=0;startArrow=diamondThin;startFill=1;exitX=0;exitY=0.5;exitDx=0;exitDy=0;movable=0;resizable=0;rotatable=0;deletable=0;editable=0;locked=1;connectable=0;" parent="1" edge="1">
          <mxGeometry relative="1" as="geometry">
            <mxPoint x="-1402" y="462" as="targetPoint" />
            <mxPoint x="-1275.9999999999995" y="461.5" as="sourcePoint" />
          </mxGeometry>
        </mxCell>
        <mxCell id="116" value="&lt;font style=&quot;font-size: 11px;&quot;&gt;RearLeftTyre&lt;/font&gt;" style="edgeLabel;html=1;align=center;verticalAlign=middle;resizable=0;points=[];fontSize=15;labelBackgroundColor=none;movable=0;rotatable=0;deletable=0;editable=0;locked=1;connectable=0;" parent="115" vertex="1" connectable="0">
          <mxGeometry x="-0.3026" y="7" relative="1" as="geometry">
            <mxPoint x="-3" y="-1" as="offset" />
          </mxGeometry>
        </mxCell>
        <mxCell id="117" value="1" style="edgeLabel;html=1;align=center;verticalAlign=middle;resizable=0;points=[];fontSize=11;movable=0;rotatable=0;deletable=0;editable=0;locked=1;connectable=0;" parent="115" vertex="1" connectable="0">
          <mxGeometry x="0.445" y="-1" relative="1" as="geometry">
            <mxPoint x="-21" y="-8" as="offset" />
          </mxGeometry>
        </mxCell>
        <mxCell id="118" value="1" style="edgeLabel;html=1;align=center;verticalAlign=middle;resizable=0;points=[];fontSize=11;movable=0;rotatable=0;deletable=0;editable=0;locked=1;connectable=0;" parent="115" vertex="1" connectable="0">
          <mxGeometry x="-0.2627" y="-2" relative="1" as="geometry">
            <mxPoint x="34" y="-8" as="offset" />
          </mxGeometry>
        </mxCell>
        <mxCell id="119" style="edgeStyle=none;html=1;fontColor=#000000;endArrow=none;endFill=0;startArrow=diamondThin;startFill=1;exitX=0;exitY=0.5;exitDx=0;exitDy=0;movable=0;resizable=0;rotatable=0;deletable=0;editable=0;locked=1;connectable=0;" parent="1" edge="1">
          <mxGeometry relative="1" as="geometry">
            <mxPoint x="-1402" y="489" as="targetPoint" />
            <mxPoint x="-1275.9999999999995" y="490.5" as="sourcePoint" />
          </mxGeometry>
        </mxCell>
        <mxCell id="120" value="&lt;font style=&quot;font-size: 11px;&quot;&gt;RearRightTyre&lt;/font&gt;" style="edgeLabel;html=1;align=center;verticalAlign=middle;resizable=0;points=[];fontSize=15;labelBackgroundColor=none;movable=0;rotatable=0;deletable=0;editable=0;locked=1;connectable=0;" parent="119" vertex="1" connectable="0">
          <mxGeometry x="-0.3026" y="7" relative="1" as="geometry">
            <mxPoint y="-1" as="offset" />
          </mxGeometry>
        </mxCell>
        <mxCell id="121" value="1" style="edgeLabel;html=1;align=center;verticalAlign=middle;resizable=0;points=[];fontSize=11;movable=0;rotatable=0;deletable=0;editable=0;locked=1;connectable=0;" parent="119" vertex="1" connectable="0">
          <mxGeometry x="0.445" y="-1" relative="1" as="geometry">
            <mxPoint x="-21" y="-8" as="offset" />
          </mxGeometry>
        </mxCell>
        <mxCell id="122" value="1" style="edgeLabel;html=1;align=center;verticalAlign=middle;resizable=0;points=[];fontSize=11;movable=0;rotatable=0;deletable=0;editable=0;locked=1;connectable=0;" parent="119" vertex="1" connectable="0">
          <mxGeometry x="-0.2627" y="-2" relative="1" as="geometry">
            <mxPoint x="25" y="-8" as="offset" />
          </mxGeometry>
        </mxCell>
        <mxCell id="123" style="edgeStyle=none;html=1;endArrow=open;endFill=0;dashed=1;entryX=0.5;entryY=0;entryDx=0;entryDy=0;exitX=0.292;exitY=1.151;exitDx=0;exitDy=0;exitPerimeter=0;movable=0;resizable=0;rotatable=0;deletable=0;editable=0;locked=1;connectable=0;" parent="1" source="105" target="102" edge="1">
          <mxGeometry relative="1" as="geometry">
            <mxPoint x="-1470" y="359" as="targetPoint" />
            <mxPoint x="-1502" y="521" as="sourcePoint" />
          </mxGeometry>
        </mxCell>
        <mxCell id="124" value="&amp;lt;&amp;lt;use&amp;gt;&amp;gt;" style="edgeLabel;html=1;align=center;verticalAlign=middle;resizable=0;points=[];rotation=-90;movable=0;rotatable=0;deletable=0;editable=0;locked=1;connectable=0;" parent="123" vertex="1" connectable="0">
          <mxGeometry x="0.2641" y="3" relative="1" as="geometry">
            <mxPoint x="-16" y="-11" as="offset" />
          </mxGeometry>
        </mxCell>
        <mxCell id="127" style="edgeStyle=none;html=1;exitX=0;exitY=1;exitDx=0;exitDy=0;exitPerimeter=0;fontSize=11;endArrow=oval;endFill=0;dashed=1;entryX=1;entryY=0;entryDx=0;entryDy=0;movable=0;resizable=0;rotatable=0;deletable=0;editable=0;locked=1;connectable=0;" parent="1" source="126" target="2" edge="1">
          <mxGeometry relative="1" as="geometry">
            <mxPoint x="-1042" y="390" as="targetPoint" />
          </mxGeometry>
        </mxCell>
        <mxCell id="126" value="{ All instances of class Tyre must have the same value for the attribute Brand and SizeInch per instance of class Car }" style="shape=note2;boundedLbl=1;whiteSpace=wrap;html=1;size=25;verticalAlign=top;align=center;fontColor=#333333;fillColor=#f5f5f5;strokeColor=#666666;movable=0;resizable=0;rotatable=0;deletable=0;editable=0;locked=1;connectable=0;" parent="1" vertex="1">
          <mxGeometry x="-980" y="249" width="130" height="124" as="geometry" />
        </mxCell>
        <mxCell id="132" value="&lt;font style=&quot;font-size: 12px;&quot;&gt;I assume that the word &quot;Bezeichnung&quot; of tyres according to spec refers to the attribute name of the four tyres in class Car&lt;br&gt;and not to some sort of label in class Tyre (which I would not recommend, as a tyre should not have any knowledge&lt;br&gt;about the car it is mounted to). In this case, class Tyre does not have any pre-defined attributes, that is why I have added&lt;br&gt;some additional attributes to make it a reasonable class candidate.&lt;br&gt;&lt;/font&gt;" style="text;html=1;align=left;verticalAlign=middle;resizable=0;points=[];autosize=1;strokeColor=none;fillColor=none;fontColor=#000000;fontStyle=1;fontSize=15;labelBorderColor=default;labelBackgroundColor=#FFFFCC;movable=0;rotatable=0;deletable=0;editable=0;locked=1;connectable=0;" parent="1" vertex="1">
          <mxGeometry x="-1600" y="1070" width="720" height="90" as="geometry" />
        </mxCell>
        <mxCell id="133" value="&amp;lt;&amp;lt;interface&amp;gt;&amp;gt;&lt;br&gt;CarStockService" style="swimlane;fontStyle=1;align=center;verticalAlign=middle;childLayout=stackLayout;horizontal=1;startSize=29;horizontalStack=0;resizeParent=1;resizeParentMax=0;resizeLast=0;collapsible=0;marginBottom=0;html=1;fillColor=#f8cecc;strokeColor=#b85450;movable=0;resizable=0;rotatable=0;deletable=0;editable=0;locked=1;connectable=0;" parent="1" vertex="1">
          <mxGeometry x="-1571" y="80" width="264" height="79" as="geometry" />
        </mxCell>
        <mxCell id="134" value="+ BookInMany(cars: CarBase[*]):&lt;span style=&quot;white-space: pre;&quot;&gt;&#x9;&lt;span style=&quot;white-space: pre;&quot;&gt;&#x9;&lt;/span&gt;&lt;/span&gt;void" style="text;html=1;strokeColor=none;fillColor=none;align=left;verticalAlign=middle;spacingLeft=4;spacingRight=4;overflow=hidden;rotatable=0;points=[[0,0.5],[1,0.5]];portConstraint=eastwest;movable=0;resizable=0;deletable=0;editable=0;locked=1;connectable=0;" parent="133" vertex="1">
          <mxGeometry y="29" width="264" height="25" as="geometry" />
        </mxCell>
        <mxCell id="135" value="+ GetStockOrderedByYearDesc():&lt;span style=&quot;white-space: pre;&quot;&gt;&#x9;&lt;/span&gt;&lt;span style=&quot;white-space-collapse: preserve;&quot;&gt;CarBase[*]&lt;/span&gt;" style="text;html=1;strokeColor=none;fillColor=none;align=left;verticalAlign=middle;spacingLeft=4;spacingRight=4;overflow=hidden;rotatable=0;points=[[0,0.5],[1,0.5]];portConstraint=eastwest;movable=0;resizable=0;deletable=0;editable=0;locked=1;connectable=0;" parent="133" vertex="1">
          <mxGeometry y="54" width="264" height="25" as="geometry" />
        </mxCell>
        <mxCell id="136" style="edgeStyle=none;html=1;exitX=0.5;exitY=0;exitDx=0;exitDy=0;endArrow=block;endFill=0;dashed=1;entryX=0.506;entryY=1.017;entryDx=0;entryDy=0;entryPerimeter=0;movable=0;resizable=0;rotatable=0;deletable=0;editable=0;locked=1;connectable=0;" parent="1" source="80" target="135" edge="1">
          <mxGeometry relative="1" as="geometry">
            <mxPoint x="-1693" y="219" as="targetPoint" />
          </mxGeometry>
        </mxCell>
        <mxCell id="137" value="&amp;lt;&amp;lt;interface&amp;gt;&amp;gt;&lt;br&gt;CarRepository" style="swimlane;fontStyle=1;align=center;verticalAlign=middle;childLayout=stackLayout;horizontal=1;startSize=29;horizontalStack=0;resizeParent=1;resizeParentMax=0;resizeLast=0;collapsible=0;marginBottom=0;html=1;fillColor=#f8cecc;strokeColor=#b85450;movable=0;resizable=0;rotatable=0;deletable=0;editable=0;locked=1;connectable=0;" parent="1" vertex="1">
          <mxGeometry x="-1261.5" y="80" width="261.5" height="79" as="geometry" />
        </mxCell>
        <mxCell id="138" value="+ InsertMany(car: CarBase[*]):&lt;span style=&quot;white-space: pre;&quot;&gt;&#x9;&lt;/span&gt;void" style="text;html=1;strokeColor=none;fillColor=none;align=left;verticalAlign=middle;spacingLeft=4;spacingRight=4;overflow=hidden;rotatable=0;points=[[0,0.5],[1,0.5]];portConstraint=eastwest;movable=0;resizable=0;deletable=0;editable=0;locked=1;connectable=0;" parent="137" vertex="1">
          <mxGeometry y="29" width="261.5" height="25" as="geometry" />
        </mxCell>
        <mxCell id="139" value="+ GetAll():&lt;span style=&quot;white-space: pre;&quot;&gt;&#x9;&lt;/span&gt;&lt;span style=&quot;white-space: pre;&quot;&gt;&#x9;&lt;span style=&quot;white-space: pre;&quot;&gt;&#x9;&lt;/span&gt;&lt;span style=&quot;white-space: pre;&quot;&gt;&#x9;&lt;span style=&quot;white-space: pre;&quot;&gt;&#x9;&lt;/span&gt;&lt;/span&gt;&lt;/span&gt;CarBase[*]" style="text;html=1;strokeColor=none;fillColor=none;align=left;verticalAlign=middle;spacingLeft=4;spacingRight=4;overflow=hidden;rotatable=0;points=[[0,0.5],[1,0.5]];portConstraint=eastwest;movable=0;resizable=0;deletable=0;editable=0;locked=1;connectable=0;" parent="137" vertex="1">
          <mxGeometry y="54" width="261.5" height="25" as="geometry" />
        </mxCell>
        <mxCell id="145" style="edgeStyle=none;html=1;exitX=0.788;exitY=0.013;exitDx=0;exitDy=0;entryX=0.124;entryY=1.093;entryDx=0;entryDy=0;dashed=1;endArrow=open;endFill=0;entryPerimeter=0;exitPerimeter=0;movable=0;resizable=0;rotatable=0;deletable=0;editable=0;locked=1;connectable=0;" parent="1" source="80" target="139" edge="1">
          <mxGeometry relative="1" as="geometry" />
        </mxCell>
        <mxCell id="146" value="&amp;lt;&amp;lt;use&amp;gt;&amp;gt;" style="edgeLabel;html=1;align=center;verticalAlign=middle;resizable=0;points=[];rotation=-30;movable=0;rotatable=0;deletable=0;editable=0;locked=1;connectable=0;" parent="145" vertex="1" connectable="0">
          <mxGeometry x="0.3395" y="2" relative="1" as="geometry">
            <mxPoint x="-24" y="7" as="offset" />
          </mxGeometry>
        </mxCell>
        <mxCell id="163" style="edgeStyle=none;html=1;exitX=0.5;exitY=0;exitDx=0;exitDy=0;startArrow=open;startFill=0;endArrow=none;endFill=0;entryX=0.513;entryY=1.054;entryDx=0;entryDy=0;entryPerimeter=0;dashed=1;movable=0;resizable=0;rotatable=0;deletable=0;editable=0;locked=1;connectable=0;" parent="1" source="147" target="62" edge="1">
          <mxGeometry relative="1" as="geometry">
            <mxPoint x="-1256" y="850" as="targetPoint" />
          </mxGeometry>
        </mxCell>
        <mxCell id="164" value="&amp;lt;&amp;lt;instantiates&amp;gt;&amp;gt;" style="edgeLabel;html=1;align=center;verticalAlign=middle;resizable=0;points=[];rotation=-90;movable=0;rotatable=0;deletable=0;editable=0;locked=1;connectable=0;" parent="163" vertex="1" connectable="0">
          <mxGeometry x="0.5452" y="-1" relative="1" as="geometry">
            <mxPoint x="-15" y="32" as="offset" />
          </mxGeometry>
        </mxCell>
        <mxCell id="147" value="CarConfig" style="swimlane;fontStyle=1;align=center;verticalAlign=middle;childLayout=stackLayout;horizontal=1;startSize=29;horizontalStack=0;resizeParent=1;resizeParentMax=0;resizeLast=0;collapsible=0;marginBottom=0;html=1;fillColor=#dae8fc;strokeColor=#6c8ebf;movable=0;resizable=0;rotatable=0;deletable=0;editable=0;locked=1;connectable=0;" parent="1" vertex="1">
          <mxGeometry x="-1301" y="957.5" width="159" height="54" as="geometry" />
        </mxCell>
        <mxCell id="149" value="+ Year:&lt;span style=&quot;white-space: pre;&quot;&gt;&#x9;&lt;/span&gt;ushort = current" style="text;html=1;strokeColor=none;fillColor=none;align=left;verticalAlign=middle;spacingLeft=4;spacingRight=4;overflow=hidden;rotatable=0;points=[[0,0.5],[1,0.5]];portConstraint=eastwest;movable=0;resizable=0;deletable=0;editable=0;locked=1;connectable=0;" parent="147" vertex="1">
          <mxGeometry y="29" width="159" height="25" as="geometry" />
        </mxCell>
        <mxCell id="158" style="edgeStyle=none;html=1;exitX=0.324;exitY=-0.003;exitDx=0;exitDy=0;entryX=0.57;entryY=1.02;entryDx=0;entryDy=0;entryPerimeter=0;endArrow=open;endFill=0;dashed=1;exitPerimeter=0;movable=0;resizable=0;rotatable=0;deletable=0;editable=0;locked=1;connectable=0;" parent="1" source="150" target="104" edge="1">
          <mxGeometry relative="1" as="geometry" />
        </mxCell>
        <mxCell id="159" value="&amp;lt;&amp;lt;use&amp;gt;&amp;gt;" style="edgeLabel;html=1;align=center;verticalAlign=middle;resizable=0;points=[];rotation=-90;movable=0;rotatable=0;deletable=0;editable=0;locked=1;connectable=0;" parent="158" vertex="1" connectable="0">
          <mxGeometry x="0.2965" relative="1" as="geometry">
            <mxPoint x="-13" y="29" as="offset" />
          </mxGeometry>
        </mxCell>
        <mxCell id="150" value="TyreConfig" style="swimlane;fontStyle=1;align=center;verticalAlign=middle;childLayout=stackLayout;horizontal=1;startSize=29;horizontalStack=0;resizeParent=1;resizeParentMax=0;resizeLast=0;collapsible=0;marginBottom=0;html=1;fillColor=#dae8fc;strokeColor=#6c8ebf;movable=0;resizable=0;rotatable=0;deletable=0;editable=0;locked=1;connectable=0;" parent="1" vertex="1">
          <mxGeometry x="-1640" y="920" width="250" height="129" as="geometry" />
        </mxCell>
        <mxCell id="151" value="+ Brand:&lt;span style=&quot;white-space: pre;&quot;&gt;&#x9;&lt;span style=&quot;white-space: pre;&quot;&gt;&#x9;&lt;span style=&quot;white-space: pre;&quot;&gt;&#x9;&lt;/span&gt;&lt;span style=&quot;white-space: pre;&quot;&gt;&#x9;&lt;/span&gt;&lt;/span&gt;&lt;/span&gt;TyreBrands = Pirelli" style="text;html=1;strokeColor=none;fillColor=none;align=left;verticalAlign=middle;spacingLeft=4;spacingRight=4;overflow=hidden;rotatable=0;points=[[0,0.5],[1,0.5]];portConstraint=eastwest;movable=0;resizable=0;deletable=0;editable=0;locked=1;connectable=0;" parent="150" vertex="1">
          <mxGeometry y="29" width="250" height="25" as="geometry" />
        </mxCell>
        <mxCell id="155" value="+ SizeInch:&lt;span style=&quot;white-space: pre;&quot;&gt;&#x9;&lt;span style=&quot;white-space: pre;&quot;&gt;&#x9;&lt;/span&gt;&lt;span style=&quot;white-space: pre;&quot;&gt;&#x9;&lt;/span&gt;&lt;/span&gt;ushort = 17" style="text;html=1;strokeColor=none;fillColor=none;align=left;verticalAlign=middle;spacingLeft=4;spacingRight=4;overflow=hidden;rotatable=0;points=[[0,0.5],[1,0.5]];portConstraint=eastwest;movable=0;resizable=0;deletable=0;editable=0;locked=1;connectable=0;" parent="150" vertex="1">
          <mxGeometry y="54" width="250" height="25" as="geometry" />
        </mxCell>
        <mxCell id="156" value="+ FrontPressurePsi:&lt;span style=&quot;white-space: pre;&quot;&gt;&#x9;&lt;/span&gt;ushort = 55" style="text;html=1;strokeColor=none;fillColor=none;align=left;verticalAlign=middle;spacingLeft=4;spacingRight=4;overflow=hidden;rotatable=0;points=[[0,0.5],[1,0.5]];portConstraint=eastwest;movable=0;resizable=0;deletable=0;editable=0;locked=1;connectable=0;" parent="150" vertex="1">
          <mxGeometry y="79" width="250" height="25" as="geometry" />
        </mxCell>
        <mxCell id="157" value="+ RearPressurePsi:&lt;span style=&quot;white-space: pre;&quot;&gt;&#x9;&lt;span style=&quot;white-space: pre;&quot;&gt;&#x9;&lt;/span&gt;u&lt;/span&gt;short = 55" style="text;html=1;strokeColor=none;fillColor=none;align=left;verticalAlign=middle;spacingLeft=4;spacingRight=4;overflow=hidden;rotatable=0;points=[[0,0.5],[1,0.5]];portConstraint=eastwest;movable=0;resizable=0;deletable=0;editable=0;locked=1;connectable=0;" parent="150" vertex="1">
          <mxGeometry y="104" width="250" height="25" as="geometry" />
        </mxCell>
        <mxCell id="160" style="edgeStyle=none;html=1;exitX=1;exitY=0.5;exitDx=0;exitDy=0;entryX=0.001;entryY=-0.033;entryDx=0;entryDy=0;entryPerimeter=0;endArrow=diamondThin;endFill=1;startArrow=none;startFill=0;movable=0;resizable=0;rotatable=0;deletable=0;editable=0;locked=1;connectable=0;" parent="1" source="155" target="149" edge="1">
          <mxGeometry relative="1" as="geometry" />
        </mxCell>
        <mxCell id="FJ4Vf0NNgzew3g04LYd6-171" value="1" style="edgeLabel;html=1;align=center;verticalAlign=middle;resizable=0;points=[];movable=0;rotatable=0;deletable=0;editable=0;locked=1;connectable=0;" vertex="1" connectable="0" parent="160">
          <mxGeometry x="-0.312" relative="1" as="geometry">
            <mxPoint x="-26" y="-8" as="offset" />
          </mxGeometry>
        </mxCell>
        <mxCell id="FJ4Vf0NNgzew3g04LYd6-172" value="1" style="edgeLabel;html=1;align=center;verticalAlign=middle;resizable=0;points=[];movable=0;rotatable=0;deletable=0;editable=0;locked=1;connectable=0;" vertex="1" connectable="0" parent="160">
          <mxGeometry x="0.0951" relative="1" as="geometry">
            <mxPoint x="27" y="-9" as="offset" />
          </mxGeometry>
        </mxCell>
        <mxCell id="165" value="&amp;lt;&amp;lt;interface&amp;gt;&amp;gt;&lt;br&gt;CarFactory" style="swimlane;fontStyle=1;align=center;verticalAlign=middle;childLayout=stackLayout;horizontal=1;startSize=29;horizontalStack=0;resizeParent=1;resizeParentMax=0;resizeLast=0;collapsible=0;marginBottom=0;html=1;fillColor=#f8cecc;strokeColor=#b85450;movable=0;resizable=0;rotatable=0;deletable=0;editable=0;locked=1;connectable=0;" parent="1" vertex="1">
          <mxGeometry x="-1044" y="794" width="163" height="79" as="geometry" />
        </mxCell>
        <mxCell id="166" value="+ CreateFord():&lt;span style=&quot;white-space: pre;&quot;&gt;&#x9;&lt;/span&gt;FordCar" style="text;html=1;strokeColor=none;fillColor=none;align=left;verticalAlign=middle;spacingLeft=4;spacingRight=4;overflow=hidden;rotatable=0;points=[[0,0.5],[1,0.5]];portConstraint=eastwest;movable=0;resizable=0;deletable=0;editable=0;locked=1;connectable=0;" parent="165" vertex="1">
          <mxGeometry y="29" width="163" height="25" as="geometry" />
        </mxCell>
        <mxCell id="167" value="+ CreateVW():&lt;span style=&quot;white-space: pre;&quot;&gt;&#x9;&lt;/span&gt;&lt;span style=&quot;white-space: pre;&quot;&gt;&#x9;&lt;/span&gt;VWCar" style="text;html=1;strokeColor=none;fillColor=none;align=left;verticalAlign=middle;spacingLeft=4;spacingRight=4;overflow=hidden;rotatable=0;points=[[0,0.5],[1,0.5]];portConstraint=eastwest;movable=0;resizable=0;deletable=0;editable=0;locked=1;connectable=0;" parent="165" vertex="1">
          <mxGeometry y="54" width="163" height="25" as="geometry" />
        </mxCell>
        <mxCell id="169" style="edgeStyle=none;html=1;exitX=1;exitY=0.5;exitDx=0;exitDy=0;entryX=0;entryY=0.5;entryDx=0;entryDy=0;endArrow=block;endFill=0;dashed=1;movable=0;resizable=0;rotatable=0;deletable=0;editable=0;locked=1;connectable=0;" parent="1" source="62" target="166" edge="1">
          <mxGeometry relative="1" as="geometry" />
        </mxCell>
      </root>
    </mxGraphModel>
  </diagram>
</mxfile>
